<svg width="176" height="156" viewBox="0 0 176 156" fill="none" xmlns="http://www.w3.org/2000/svg">
<path fill-rule="evenodd" clip-rule="evenodd" d="M80.8557 1.34457C92.713 -1.08369 103.727 9.81553 112.619 18.5597C120.553 26.3618 120.412 40.3365 128.389 48.0878C141.597 60.922 166.731 59.7012 173.254 77.4775C179.052 93.2752 169.648 114.981 156.29 124.119C141.847 134 121.815 117.257 105.751 123.656C93.7255 128.447 93.1449 150.219 80.8557 154.171C68.8913 158.018 57.2968 147.483 45.5193 143.023C31.1799 137.593 11.9394 138.887 3.93027 125.04C-4.02782 111.282 6.63959 93.6285 7.60712 77.4775C8.50335 62.5167 -0.866254 43.4744 9.42526 33.3121C20.911 21.9705 40.9937 36.7271 55.4087 30.2759C67.021 25.079 68.4943 3.87607 80.8557 1.34457Z" fill="#46D913" stroke="white" stroke-width="2" stroke-linecap="round" stroke-dasharray="6 6"/>
</svg>
